<?xml version="1.0" standalone="yes"?>
<svg xmlns="http://www.w3.org/2000/svg" width="377" height="345">
<path style="fill:#2f4356; stroke:none;" d="M0 0L0 257L1 257L20.3333 199L27.2269 176L12 155L19 151C13.8856 143.76 5.64898 140.521 16 134L6 125L6 122C16.9852 117.293 10.258 102.328 8.57562 93C6.57412 81.9029 1.74631 68.2453 2.49614 57C3.75164 38.1711 17.0228 18.2344 22 0L0 0z"/>
<path style="fill:#814719; stroke:none;" d="M22 0C16.9068 13.2029 12.2978 26.6312 7.65586 40C5.69565 45.6454 2.14657 51.8979 2.26389 58C2.53145 71.9168 7.17951 87.3119 9.80324 101C11.4597 109.642 14.5013 116.604 6 122L6 125L16 134C4.10048 139.057 12.8402 144.857 19 151L12 155C14.4335 160.747 21.8546 172.285 28.0394 174.356C36.4347 177.168 54.6046 168.122 63 165.709C76.8323 161.734 94.4191 159.771 107 152.722C118.577 146.235 128.945 134.524 139 125.87C146.013 119.834 156.911 113.391 161 105L62 30.3734L36 10.6512L26 1L23 2L24 0L22 0z"/>
<path style="fill:#2f4356; stroke:none;" d="M24 0L24 1L109 36.6034L138 48.4714L182 49L238 49.6713L283 32.0108L357 2C362.685 19.4709 374.283 40.6927 375.504 59C376.241 70.0563 371.148 83.0976 369.25 94C367.621 103.359 360.469 118.479 372 123L361 134L370 140L370 141L359 150L359 152C371.606 159.619 350.082 168.496 350.665 178C351.14 185.733 355.887 194.661 358.333 202C364.469 220.407 371.663 239.084 376 258L377 258L377 0L24 0z"/>
<path style="fill:#a16025; stroke:none;" d="M23.6667 1.33334L24.3333 1.66666L23.6667 1.33334M25 2L28 5L28 2L25 2z"/>
<path style="fill:#ee871e; stroke:none;" d="M26 2L27 3L26 2z"/>
<path style="fill:#814719; stroke:none;" d="M28 2L29 3L28 2M356 2C344.015 16.7226 323.182 27.4921 308 38.8734C279.065 60.5655 250.4 87.1098 219 105C223.206 113.994 234.563 121.011 242 127.424C251.607 135.708 261.026 146.764 272 153.16C283.998 160.155 301.657 162.155 315 166C323.616 168.483 340.243 176.882 348.985 175.071C356.527 173.509 369.883 156.361 359 152L359 150L370 141L370 140L361 134L372 123C360.007 115.984 369.516 93.4942 371.8 82C373.218 74.8659 376.098 66.2692 375.726 59C375.165 48.0309 368.466 35.3985 365 25C362.599 17.7956 361.057 7.73709 356 2z"/>
<path style="fill:#ee871e; stroke:none;" d="M27 3L27 4C59.8602 27.6044 91.836 52.5771 124 77.1157C134.943 85.4644 155.933 95.557 162 108C141.453 117.525 127.058 140.321 108 152.579C92.0831 162.817 66.1884 165.393 48 170.579C42.5095 172.144 34.1726 172.945 29.51 176.303C26.5184 178.458 25.7647 183.706 24.6667 187L16.3326 212C11.6062 226.041 1.29478 244.099 1.18364 259C1.11455 268.263 5.77164 279.127 8.29012 288C13.5241 306.441 19.1256 325.229 23 344C40.5763 339.934 57.8125 332.996 75 327.505C87.1066 323.636 101.919 320.825 113 314.621C127.049 306.755 140.914 296.247 154 286.845C159.922 282.59 166.128 276.454 173 273.843C182.539 270.219 200.861 272.024 211 273.108C218.038 273.861 223.664 280.22 229 284.35C241.317 293.884 253.313 304.065 265.985 313.117C273.566 318.532 285.198 320.402 294 323.333C312.637 329.54 334.46 340.294 354 342C358.54 322.196 364.569 302.682 369.63 283C371.61 275.3 376.109 266.001 375.725 258C375.023 243.341 365.64 225.921 361 212C358.033 203.1 355.586 183.023 348.49 176.843C343.59 172.577 333.162 171.606 327 169.86C310.052 165.056 292.688 160.885 276 155.251C263.64 151.078 252.712 137.169 243 128.718C237.867 124.252 220.712 113.711 219.631 106.924C219.124 103.737 224.928 100.91 227 99.3704C235.025 93.4053 243.001 87.3729 251 81.3734C284.818 56.0098 318.132 27.3363 354 5L354 4C315.064 14.6493 279.828 38.2412 241 49.2114C230.208 52.2607 216.175 50 205 50C184.482 50 160.101 53.6407 140 49.6211C129.76 47.5733 119.594 41.45 110 37.4244C82.9936 26.0918 55.2364 10.7229 27 3z"/>
<path style="fill:#a16025; stroke:none;" d="M29 3L30 4L29 3z"/>
<path style="fill:#814719; stroke:none;" d="M30 3L31 4L30 3z"/>
<path style="fill:#a16025; stroke:none;" d="M353 3L354 5L355 5L356 3L353 3M31.6667 4.33334L32.3333 4.66666L31.6667 4.33334M351 4L352 5L351 4M29 5L30 6L29 5M34 5L35 6L34 5z"/>
<path style="fill:#814719; stroke:none;" d="M35 5L36 6L35 5z"/>
<path style="fill:#a16025; stroke:none;" d="M348.667 5.33334L349.333 5.66666L348.667 5.33334M352 5L353 6L352 5M30 6L31 7L30 6M36 6L37 7L36 6z"/>
<path style="fill:#814719; stroke:none;" d="M37 6L38 7L37 6z"/>
<path style="fill:#a16025; stroke:none;" d="M346 6L347 7L346 6M351 6L352 7L351 6M31 7L32 8L31 7M39 7L40 8L39 7z"/>
<path style="fill:#814719; stroke:none;" d="M40 7L41 8L40 7z"/>
<path style="fill:#a16025; stroke:none;" d="M343.667 7.33334L344.333 7.66666L343.667 7.33334M350 7L351 8L350 7M33 8L34 9L33 8M41 8L42 9L41 8z"/>
<path style="fill:#814719; stroke:none;" d="M42 8L43 9L42 8z"/>
<path style="fill:#a16025; stroke:none;" d="M341 8L342 9L341 8M348 8L349 9L348 8M34 9L35 10L34 9M43 9L44 10L43 9z"/>
<path style="fill:#814719; stroke:none;" d="M44 9L45 10L44 9z"/>
<path style="fill:#a16025; stroke:none;" d="M338.667 9.33334L339.333 9.66666L338.667 9.33334M347 9L348 10L347 9M35 10L36 11L35 10M46 10L47 11L46 10z"/>
<path style="fill:#814719; stroke:none;" d="M47 10L48 11L47 10z"/>
<path style="fill:#a16025; stroke:none;" d="M336 10L337 11L336 10M346 10L347 11L346 10M37 11L38 12L37 11M48 11L49 12L48 11z"/>
<path style="fill:#814719; stroke:none;" d="M49 11L50 12L49 11z"/>
<path style="fill:#a16025; stroke:none;" d="M333.667 11.3333L334.333 11.6667L333.667 11.3333M344 11L345 12L344 11M38 12L39 13L38 12M50 12L51 13L50 12z"/>
<path style="fill:#814719; stroke:none;" d="M51 12L52 13L51 12z"/>
<path style="fill:#a16025; stroke:none;" d="M331.667 12.3333L332.333 12.6667L331.667 12.3333M343 12L344 13L343 12M39 13L40 14L39 13M53 13L54 14L53 13z"/>
<path style="fill:#814719; stroke:none;" d="M54 13L55 14L54 13M328 13L329 14L328 13z"/>
<path style="fill:#a16025; stroke:none;" d="M329 13L330 14L329 13M342 13L343 14L342 13M40.6667 14.3333L41.3333 14.6667L40.6667 14.3333M55 14L56 15L55 14z"/>
<path style="fill:#814719; stroke:none;" d="M56 14L57 15L56 14z"/>
<path style="fill:#a16025; stroke:none;" d="M326.667 14.3333L327.333 14.6667L326.667 14.3333M340 14L341 15L340 14M42 15L43 16L42 15M57.6667 15.3333L58.3333 15.6667L57.6667 15.3333z"/>
<path style="fill:#814719; stroke:none;" d="M323 15L324 16L323 15z"/>
<path style="fill:#a16025; stroke:none;" d="M324 15L325 16L324 15M339 15L340 16L339 15M43 16L44 17L43 16M60 16L61 17L60 16z"/>
<path style="fill:#814719; stroke:none;" d="M61 16L62 17L61 16z"/>
<path style="fill:#a16025; stroke:none;" d="M321.667 16.3333L322.333 16.6667L321.667 16.3333M338 16L339 17L338 16M44.6667 17.3333L45.3333 17.6667L44.6667 17.3333M62 17L63 18L62 17z"/>
<path style="fill:#814719; stroke:none;" d="M63 17L64 18L63 17z"/>
<path style="fill:#a16025; stroke:none;" d="M319 17L320 18L319 17M336 17L337 18L336 17M46 18L47 19L46 18M65 18L66 19L65 18z"/>
<path style="fill:#814719; stroke:none;" d="M66 18L67 19L66 18z"/>
<path style="fill:#a16025; stroke:none;" d="M316.667 18.3333L317.333 18.6667L316.667 18.3333M335 18L336 19L335 18M47 19L48 20L47 19M67 19L68 20L67 19z"/>
<path style="fill:#814719; stroke:none;" d="M68 19L69 20L68 19z"/>
<path style="fill:#a16025; stroke:none;" d="M314 19L315 20L314 19M334 19L335 20L334 19M48.6667 20.3333L49.3333 20.6667L48.6667 20.3333M69 20L70 21L69 20z"/>
<path style="fill:#814719; stroke:none;" d="M70 20L71 21L70 20z"/>
<path style="fill:#a16025; stroke:none;" d="M311.667 20.3333L312.333 20.6667L311.667 20.3333M332 20L333 21L332 20M50 21L51 22L50 21M72 21L73 22L72 21z"/>
<path style="fill:#814719; stroke:none;" d="M73 21L74 22L73 21z"/>
<path style="fill:#a16025; stroke:none;" d="M309 21L310 22L309 21M331 21L332 22L331 21M51 22L52 23L51 22M74 22L75 23L74 22z"/>
<path style="fill:#814719; stroke:none;" d="M75 22L76 23L75 22z"/>
<path style="fill:#a16025; stroke:none;" d="M306.667 22.3333L307.333 22.6667L306.667 22.3333M330 22L331 23L330 22M52.6667 23.3333L53.3333 23.6667L52.6667 23.3333M76 23L77 24L76 23z"/>
<path style="fill:#814719; stroke:none;" d="M77 23L78 24L77 23z"/>
<path style="fill:#a16025; stroke:none;" d="M304 23L305 24L304 23M328 23L329 24L328 23M54 24L55 25L54 24M79 24L80 25L79 24z"/>
<path style="fill:#814719; stroke:none;" d="M80 24L81 25L80 24z"/>
<path style="fill:#a16025; stroke:none;" d="M301.667 24.3333L302.333 24.6667L301.667 24.3333M327 24L328 25L327 24M55 25L56 26L55 25M81 25L82 26L81 25z"/>
<path style="fill:#814719; stroke:none;" d="M82 25L83 26L82 25z"/>
<path style="fill:#a16025; stroke:none;" d="M299 25L300 26L299 25M325.667 25.3333L326.333 25.6667L325.667 25.3333M56.6667 26.3333L57.3333 26.6667L56.6667 26.3333M83.6667 26.3333L84.3333 26.6667L83.6667 26.3333z"/>
<path style="fill:#814719; stroke:none;" d="M85 26L86 27L85 26z"/>
<path style="fill:#a16025; stroke:none;" d="M296.667 26.3333L297.333 26.6667L296.667 26.3333M324 26L325 27L324 26M58 27L59 28L58 27M86 27L87 28L86 27z"/>
<path style="fill:#814719; stroke:none;" d="M87 27L88 28L87 27z"/>
<path style="fill:#a16025; stroke:none;" d="M294 27L295 28L294 27M323 27L324 28L323 27M59 28L60 29L59 28M88 28L89 29L88 28z"/>
<path style="fill:#814719; stroke:none;" d="M89 28L90 29L89 28z"/>
<path style="fill:#a16025; stroke:none;" d="M291.667 28.3333L292.333 28.6667L291.667 28.3333M322 28L323 29L322 28M60.6667 29.3333L61.3333 29.6667L60.6667 29.3333M91 29L92 30L91 29z"/>
<path style="fill:#814719; stroke:none;" d="M92 29L93 30L92 29z"/>
<path style="fill:#a16025; stroke:none;" d="M289 29L290 30L289 29M320 29L321 30L320 29M62 30L63 31L62 30M93 30L94 31L93 30z"/>
<path style="fill:#814719; stroke:none;" d="M94 30L95 31L94 30M286 30L287 31L286 30z"/>
<path style="fill:#a16025; stroke:none;" d="M287 30L288 31L287 30M319 30L320 31L319 30M63 31L64 32L63 31M95 31L96 32L95 31z"/>
<path style="fill:#814719; stroke:none;" d="M96 31L97 32L96 31z"/>
<path style="fill:#a16025; stroke:none;" d="M284.667 31.3333L285.333 31.6667L284.667 31.3333M317.667 31.3333L318.333 31.6667L317.667 31.3333M64.6667 32.3333L65.3333 32.6667L64.6667 32.3333M98 32L99 33L98 32z"/>
<path style="fill:#814719; stroke:none;" d="M99 32L100 33L99 32M281 32L282 33L281 32z"/>
<path style="fill:#a16025; stroke:none;" d="M282 32L283 33L282 32M316 32L317 33L316 32M66 33L67 34L66 33M100 33L101 34L100 33z"/>
<path style="fill:#814719; stroke:none;" d="M101 33L102 34L101 33z"/>
<path style="fill:#a16025; stroke:none;" d="M279.667 33.3333L280.333 33.6667L279.667 33.3333M315 33L316 34L315 33M67 34L68 35L67 34M102.667 34.3333L103.333 34.6667L102.667 34.3333M277 34L278 35L277 34M313 34L314 35L313 34M68.6667 35.3333L69.3333 35.6667L68.6667 35.3333M105 35L106 36L105 35z"/>
<path style="fill:#814719; stroke:none;" d="M106 35L107 36L106 35z"/>
<path style="fill:#a16025; stroke:none;" d="M274.667 35.3333L275.333 35.6667L274.667 35.3333M312 35L313 36L312 35M70 36L71 37L70 36M107 36L108 37L107 36z"/>
<path style="fill:#814719; stroke:none;" d="M108 36L109 37L108 36z"/>
<path style="fill:#a16025; stroke:none;" d="M272 36L273 37L272 36M311 36L312 37L311 36M71 37L72 38L71 37M110 37L111 38L110 37z"/>
<path style="fill:#814719; stroke:none;" d="M111 37L112 38L111 37z"/>
<path style="fill:#a16025; stroke:none;" d="M269.667 37.3333L270.333 37.6667L269.667 37.3333M309 37L310 38L309 37M72.6667 38.3333L73.3333 38.6667L72.6667 38.3333M112 38L113 39L112 38z"/>
<path style="fill:#814719; stroke:none;" d="M113 38L114 39L113 38z"/>
<path style="fill:#a16025; stroke:none;" d="M267 38L268 39L267 38M308 38L309 39L308 38M74 39L75 40L74 39M114 39L115 40L114 39z"/>
<path style="fill:#814719; stroke:none;" d="M115 39L116 40L115 39z"/>
<path style="fill:#a16025; stroke:none;" d="M264.667 39.3333L265.333 39.6667L264.667 39.3333M307 39L308 40L307 39M75 40L76 41L75 40M117 40L118 41L117 40z"/>
<path style="fill:#814719; stroke:none;" d="M118 40L119 41L118 40z"/>
<path style="fill:#a16025; stroke:none;" d="M262 40L263 41L262 40M305 40L306 41L305 40M76 41L77 42L76 41M119 41L120 42L119 41z"/>
<path style="fill:#814719; stroke:none;" d="M120 41L121 42L120 41z"/>
<path style="fill:#a16025; stroke:none;" d="M259.667 41.3333L260.333 41.6667L259.667 41.3333M304 41L305 42L304 41M78 42L79 43L78 42M121 42L122 43L121 42z"/>
<path style="fill:#814719; stroke:none;" d="M122 42L123 43L122 42z"/>
<path style="fill:#a16025; stroke:none;" d="M257 42L258 43L257 42M303 42L304 43L303 42M79 43L80 44L79 43M124 43L125 44L124 43z"/>
<path style="fill:#814719; stroke:none;" d="M125 43L126 44L125 43z"/>
<path style="fill:#a16025; stroke:none;" d="M254.667 43.3333L255.333 43.6667L254.667 43.3333M301 43L302 44L301 43M80 44L81 45L80 44M126 44L127 45L126 44z"/>
<path style="fill:#814719; stroke:none;" d="M127 44L128 45L127 44z"/>
<path style="fill:#a16025; stroke:none;" d="M252 44L253 45L252 44M300 44L301 45L300 44M82 45L83 46L82 45M128.667 45.3333L129.333 45.6667L128.667 45.3333M249.667 45.3333L250.333 45.6667L249.667 45.3333M299 45L300 46L299 45M83 46L84 47L83 46M131 46L132 47L131 46z"/>
<path style="fill:#814719; stroke:none;" d="M132 46L133 47L132 46z"/>
<path style="fill:#a16025; stroke:none;" d="M247 46L248 47L247 46M297 46L298 47L297 46M84 47L85 48L84 47M133 47L134 48L133 47z"/>
<path style="fill:#814719; stroke:none;" d="M134 47L135 48L134 47M244 47L245 48L244 47z"/>
<path style="fill:#a16025; stroke:none;" d="M245 47L246 48L245 47M296 47L297 48L296 47M86 48L87 49L86 48M136 48L137 49L136 48z"/>
<path style="fill:#814719; stroke:none;" d="M137 48L138 49L137 48z"/>
<path style="fill:#a16025; stroke:none;" d="M242.667 48.3333L243.333 48.6667L242.667 48.3333M295 48L296 49L295 48M87 49L88 50L87 49M138 49L138 50L148 50L138 49z"/>
<path style="fill:#814719; stroke:none;" d="M148 49L148 50L204 50L186 49L148 49M239 49L240 50L239 49z"/>
<path style="fill:#a16025; stroke:none;" d="M240 49L241 50L240 49M293 49L294 50L293 49M88 50L89 51L88 50M292 50L293 51L292 50M89.6667 51.3333L90.3333 51.6667L89.6667 51.3333M291 51L292 52L291 51M91 52L92 53L91 52M289 52L290 53L289 52M92 53L93 54L92 53M288 53L289 54L288 53M93.6667 54.3333L94.3333 54.6667L93.6667 54.3333M287 54L288 55L287 54M95 55L96 56L95 55M285 55L286 56L285 55M96 56L97 57L96 56M284 56L285 57L284 56M97.6667 57.3333L98.3333 57.6667L97.6667 57.3333M283 57L284 58L283 57M99 58L100 59L99 58M281 58L282 59L281 58M100 59L101 60L100 59M280 59L281 60L280 59M101.667 60.3333L102.333 60.6667L101.667 60.3333M279 60L280 61L279 60M103 61L104 62L103 61M277 61L278 62L277 61M104 62L105 63L104 62M276 62L277 63L276 62M105.667 63.3333L106.333 63.6667L105.667 63.3333M275 63L276 64L275 63M107 64L108 65L107 64M273 64L274 65L273 64M108 65L109 66L108 65M272 65L273 66L272 65M109.667 66.3333L110.333 66.6667L109.667 66.3333M270.667 66.3333L271.333 66.6667L270.667 66.3333M111 67L112 68L111 67M269 67L270 68L269 67M112 68L113 69L112 68M268 68L269 69L268 68M113.667 69.3333L114.333 69.6667L113.667 69.3333M266.667 69.3333L267.333 69.6667L266.667 69.3333M115 70L116 71L115 70M265 70L266 71L265 70M116 71L117 72L116 71M264 71L265 72L264 71M117.667 72.3333L118.333 72.6667L117.667 72.3333M262.667 72.3333L263.333 72.6667L262.667 72.3333M119 73L120 74L119 73M261 73L262 74L261 73M120 74L121 75L120 74M260 74L261 75L260 74M121 75L122 76L121 75M258 75L259 76L258 75M123 76L124 77L123 76M257 76L258 77L257 76M124 77L125 78L124 77M256 77L257 78L256 77M125 78L126 79L125 78M254.667 78.3333L255.333 78.6667L254.667 78.3333M127 79L128 80L127 79M253 79L254 80L253 79M128 80L129 81L128 80M252 80L253 81L252 80M129 81L130 82L129 81M250.667 81.3333L251.333 81.6667L250.667 81.3333M130.667 82.3333L131.333 82.6667L130.667 82.3333M249 82L250 83L249 82M132 83L133 84L132 83M248 83L249 84L248 83M133 84L134 85L133 84M246.667 84.3333L247.333 84.6667L246.667 84.3333M134.667 85.3333L135.333 85.6667L134.667 85.3333M245 85L246 86L245 85M136 86L137 87L136 86M244 86L245 87L244 86M137 87L138 88L137 87M242.667 87.3333L243.333 87.6667L242.667 87.3333M138.667 88.3333L139.333 88.6667L138.667 88.3333M241 88L242 89L241 88M140 89L141 90L140 89M240 89L241 90L240 89M141 90L142 91L141 90M238.667 90.3333L239.333 90.6667L238.667 90.3333M142.667 91.3333L143.333 91.6667L142.667 91.3333M237 91L238 92L237 91M144 92L145 93L144 92M236 92L237 93L236 92M145 93L146 94L145 93M234.667 93.3333L235.333 93.6667L234.667 93.3333M146.667 94.3333L147.333 94.6667L146.667 94.3333M233 94L234 95L233 94M148 95L149 96L148 95M232 95L233 96L232 95M149 96L150 97L149 96M230.667 96.3333L231.333 96.6667L230.667 96.3333M150.667 97.3333L151.333 97.6667L150.667 97.3333M229 97L230 98L229 97M152 98L153 99L152 98M228 98L229 99L228 98M153 99L154 100L153 99M226.667 99.3333L227.333 99.6667L226.667 99.3333M154.667 100.333L155.333 100.667L154.667 100.333M225 100L226 101L225 100M156 101L157 102L156 101M224 101L225 102L224 101M157 102L158 103L157 102M222.667 102.333L223.333 102.667L222.667 102.333M158.667 103.333L159.333 103.667L158.667 103.333M221 103L222 104L221 103M160 104L161 105L160 104M219.667 104.333L220.333 104.667L219.667 104.333M161 105L160 108L161 105M218 105L221 109L218 105M159 108L160 109L159 108M158 109L159 110L158 109M221 109L222 110L221 109M153 114L158 110L153 114M222 110L223 111L222 110M223 111L224 112L223 111M224 112L225 113L224 112M225 113L229 116L225 113M152 114L153 115L152 114M151 115L152 116L151 115M146 120L151 116L146 120M229 116L230 117L229 116M230 117L231 118L230 117M231 118L232 119L231 118M232 119L233 120L232 119M145 120L146 121L145 120M233 120L237 123L233 120M144 121L145 122L144 121M139 126L144 122L139 126M237 123L238 124L237 123M238 124L239 125L238 124M239 125L240 126L239 125M138 126L139 127L138 126M240 126L241 127L240 126M137 127L138 128L137 127M241 127L245 130L241 127M132 132L137 128L132 132M245 130L246 131L245 130M246 131L247 132L246 131M131 132L132 133L131 132M247 132L248 133L247 132M130 133L131 134L130 133M248 133L249 134L248 133M125 138L130 134L125 138M249 134L254 138L249 134M124 138L125 139L124 138M254 138L255 139L254 138M123 139L124 140L123 139M255 139L256 140L255 139M118 144L123 140L118 144M256 140L257 141L256 140M257 141L262 145L257 141M117 144L118 145L117 144M116 145L117 146L116 145M262 145L263 146L262 145M111 150L116 146L111 150M263 146L264 147L263 146M264 147L265 148L264 147M265 148L266 149L265 148M266 149L271 153L266 149M110 150L111 151L110 150M109 151L110 152L109 151M106 154L109 152L106 154M271 153L272 154L271 153M102 154L102 155L105 155L102 154M273.667 154.333L274.333 154.667L273.667 154.333M99 155L99 156L102 156L99 155M276 155L276 156L279 156L276 155M95 156L95 157L98 157L95 156M280.667 156.333L281.333 156.667L280.667 156.333M92 157L92 158L95 158L92 157M283 157L283 158L286 158L283 157M88 158L88 159L91 159L88 158M287.667 158.333L288.333 158.667L287.667 158.333M85 159L85 160L88 160L85 159M290 159L290 160L293 160L290 159M81 160L81 161L84 161L81 160M294.667 160.333L295.333 160.667L294.667 160.333M78 161L78 162L81 162L78 161M297 161L297 162L300 162L297 161M74 162L74 163L77 163L74 162M301.667 162.333L302.333 162.667L301.667 162.333M70 163L70 164L73 164L70 163M304 163L304 164L307 164L304 163M67 164L67 165L70 165L67 164M308.667 164.333L309.333 164.667L308.667 164.333M63 165L63 166L66 166L63 165M311 165L311 166L314 166L311 165M60 166L60 167L63 167L60 166M315.667 166.333L316.333 166.667L315.667 166.333M56 167L56 168L59 168L56 167M318 167L318 168L321 168L318 167M53 168L53 169L56 169L53 168M322.667 168.333L323.333 168.667L322.667 168.333M49 169L49 170L52 170L49 169M325 169L325 170L328 170L325 169M46 170L46 171L49 171L46 170M329.667 170.333L330.333 170.667L329.667 170.333M42 171L42 172L45 172L42 171M332 171L332 172L335 172L332 171M39 172L39 173L42 173L39 172M336.667 172.333L337.333 172.667L336.667 172.333M35 173L35 174L38 174L35 173M339 173L339 174L342 174L339 173M32 174L32 175L35 175L32 174M343.667 174.333L344.333 174.667L343.667 174.333M28 175L28 176L31 176L28 175M346.667 175.333L347.333 175.667L346.667 175.333M349 176L350 177L349 176M27 178L28 179L27 178z"/>
<path style="fill:#814719; stroke:none;" d="M350 178L351 179L350 178z"/>
<path style="fill:#a16025; stroke:none;" d="M350 179L351 180L350 179M26 181L27 182L26 181z"/>
<path style="fill:#814719; stroke:none;" d="M351 181L352 182L351 181z"/>
<path style="fill:#a16025; stroke:none;" d="M351 182L352 183L351 182M25 184L26 185L25 184z"/>
<path style="fill:#814719; stroke:none;" d="M352 184L353 185L352 184z"/>
<path style="fill:#a16025; stroke:none;" d="M352 185L353 186L352 185M24 187L25 188L24 187z"/>
<path style="fill:#814719; stroke:none;" d="M353 187L354 188L353 187z"/>
<path style="fill:#a16025; stroke:none;" d="M353 188L354 189L353 188M23 190L24 191L23 190z"/>
<path style="fill:#814719; stroke:none;" d="M354 190L355 191L354 190z"/>
<path style="fill:#a16025; stroke:none;" d="M354.333 191.667L354.667 192.333L354.333 191.667z"/>
<path style="fill:#814719; stroke:none;" d="M22 192L23 193L22 192z"/>
<path style="fill:#a16025; stroke:none;" d="M22 193L23 194L22 193z"/>
<path style="fill:#814719; stroke:none;" d="M355 193L356 194L355 193z"/>
<path style="fill:#a16025; stroke:none;" d="M355.333 194.667L355.667 195.333L355.333 194.667z"/>
<path style="fill:#814719; stroke:none;" d="M21 195L22 196L21 195z"/>
<path style="fill:#a16025; stroke:none;" d="M21 196L22 197L21 196z"/>
<path style="fill:#814719; stroke:none;" d="M356 196L357 197L356 196z"/>
<path style="fill:#a16025; stroke:none;" d="M356.333 197.667L356.667 198.333L356.333 197.667z"/>
<path style="fill:#814719; stroke:none;" d="M20 198L21 199L20 198z"/>
<path style="fill:#a16025; stroke:none;" d="M20 199L21 200L20 199z"/>
<path style="fill:#814719; stroke:none;" d="M357 199L358 200L357 199z"/>
<path style="fill:#a16025; stroke:none;" d="M357.333 200.667L357.667 201.333L357.333 200.667z"/>
<path style="fill:#814719; stroke:none;" d="M19 201L20 202L19 201z"/>
<path style="fill:#a16025; stroke:none;" d="M19 202L20 203L19 202z"/>
<path style="fill:#814719; stroke:none;" d="M358 202L359 203L358 202z"/>
<path style="fill:#a16025; stroke:none;" d="M358.333 203.667L358.667 204.333L358.333 203.667M18.3333 204.667L18.6667 205.333L18.3333 204.667M118 218L118 219L125 221L125 220L120 218L148 205C149.526 209.142 161.219 228.456 157 229L157 230L161 230L149 204L118 218M233 204L222 230L223 230L234 205L255 214.833L260 219L260 220L264 218L233 204z"/>
<path style="fill:#814719; stroke:none;" d="M147 205L149 207L147 205M234 205L233 207L234 205M359 205L360 206L359 205M145 206L146 207L145 206z"/>
<path style="fill:#2f4356; stroke:none;" d="M120 218L120 219L159 229L148 206L120 218M234 206L223 229C233.771 227.415 252.148 224.308 261 218L234 206z"/>
<path style="fill:#814719; stroke:none;" d="M236 206L237 207L236 206z"/>
<path style="fill:#a16025; stroke:none;" d="M359.333 206.667L359.667 207.333L359.333 206.667M17.3333 207.667L17.6667 208.333L17.3333 207.667z"/>
<path style="fill:#814719; stroke:none;" d="M143 207L144 208L143 207M238 207L239 208L238 207M141 208L142 209L141 208M149 208L150 209L149 208M232 208L233 209L232 208M241 208L242 209L241 208M360 208L361 209L360 208M138.667 209.333L139.333 209.667L138.667 209.333M243 209L244 210L243 209z"/>
<path style="fill:#a16025; stroke:none;" d="M360.333 209.667L360.667 210.333L360.333 209.667M16.3333 210.667L16.6667 211.333L16.3333 210.667z"/>
<path style="fill:#814719; stroke:none;" d="M136.667 210.333L137.333 210.667L136.667 210.333M150 210L151 211L150 210M231 210L232 211L231 210M245 210L246 211L245 210M134 211L135 212L134 211M247 211L248 212L247 211M361 211L362 212L361 211M132 212L133 213L132 212M151 212L152 213L151 212M230 212L231 213L230 212M249 212L250 213L249 212z"/>
<path style="fill:#a16025; stroke:none;" d="M361.333 212.667L361.667 213.333L361.333 212.667M15.3333 213.667L15.6667 214.333L15.3333 213.667z"/>
<path style="fill:#814719; stroke:none;" d="M130 213L131 214L130 213M251 213L252 214L251 213M128 214L129 215L128 214M152 214L153 215L152 214M229 214L230 215L229 214M254 214L255 215L254 214M362 214L363 215L362 214M125.667 215.333L126.333 215.667L125.667 215.333M256 215L257 216L256 215z"/>
<path style="fill:#a16025; stroke:none;" d="M362.333 215.667L362.667 216.333L362.333 215.667M14.3333 216.667L14.6667 217.333L14.3333 216.667z"/>
<path style="fill:#814719; stroke:none;" d="M123.667 216.333L124.333 216.667L123.667 216.333M153 216L154 217L153 216M228.333 216.667L228.667 217.333L228.333 216.667M258 216L259 217L258 216M121 217L122 218L121 217M260 217L261 218L260 217M363 217L364 218L363 217M154 218L155 219L154 218M261 218L262 219L261 218z"/>
<path style="fill:#a16025; stroke:none;" d="M363.333 218.667L363.667 219.333L363.333 218.667M13 219L14 220L13 219z"/>
<path style="fill:#814719; stroke:none;" d="M227 219L228 220L227 219M259 219L260 220L259 219M125 220L126 221L125 220M155 220L156 221L155 220M255.667 220.333L256.333 220.667L255.667 220.333z"/>
<path style="fill:#a16025; stroke:none;" d="M257.667 220.333L258.333 220.667L257.667 220.333z"/>
<path style="fill:#814719; stroke:none;" d="M364 220L365 221L364 220z"/>
<path style="fill:#a16025; stroke:none;" d="M126 221L126 222L129 222L126 221z"/>
<path style="fill:#814719; stroke:none;" d="M129 221L130 222L129 221M226 221L227 222L226 221M251.667 221.333L252.333 221.667L251.667 221.333z"/>
<path style="fill:#a16025; stroke:none;" d="M253.667 221.333L254.333 221.667L253.667 221.333M364.333 221.667L364.667 222.333L364.333 221.667M12 222L13 223L12 222M130 222L130 223L133 223L130 222z"/>
<path style="fill:#814719; stroke:none;" d="M133 222L134 223L133 222M156 222L157 223L156 222M248 222L249 223L248 222z"/>
<path style="fill:#a16025; stroke:none;" d="M249.667 222.333L250.333 222.667L249.667 222.333M134 223L134 224L137 224L134 223z"/>
<path style="fill:#814719; stroke:none;" d="M225 223L226 224L225 223M244.667 223.333L245.333 223.667L244.667 223.333z"/>
<path style="fill:#a16025; stroke:none;" d="M246.667 223.333L247.333 223.667L246.667 223.333M137 224L137 225L140 225L137 224z"/>
<path style="fill:#814719; stroke:none;" d="M140 224L141 225L140 224M157 224L158 225L157 224M240.667 224.333L241.333 224.667L240.667 224.333z"/>
<path style="fill:#a16025; stroke:none;" d="M242.667 224.333L243.333 224.667L242.667 224.333M365.333 224.667L365.667 225.333L365.333 224.667M11 225L12 226L11 225M141 225L141 226L144 226L141 225z"/>
<path style="fill:#814719; stroke:none;" d="M144 225L145 226L144 225M224 225L225 226L224 225M237 225L238 226L237 225z"/>
<path style="fill:#a16025; stroke:none;" d="M238.667 225.333L239.333 225.667L238.667 225.333M145 226L145 227L148 227L145 226z"/>
<path style="fill:#814719; stroke:none;" d="M148 226L149 227L148 226M158 226L159 227L158 226M233.667 226.333L234.333 226.667L233.667 226.333z"/>
<path style="fill:#a16025; stroke:none;" d="M235.667 226.333L236.333 226.667L235.667 226.333M149 227L149 228L152 228L149 227z"/>
<path style="fill:#814719; stroke:none;" d="M223 227L224 228L223 227M229.667 227.333L230.333 227.667L229.667 227.333z"/>
<path style="fill:#a16025; stroke:none;" d="M231.667 227.333L232.333 227.667L231.667 227.333z"/>
<path style="fill:#814719; stroke:none;" d="M366 227L367 228L366 227z"/>
<path style="fill:#a16025; stroke:none;" d="M10 228L11 229L10 228M153.667 228.333L154.333 228.667L153.667 228.333z"/>
<path style="fill:#814719; stroke:none;" d="M155.667 228.333L156.333 228.667L155.667 228.333M159 228L160 229L159 228M226 228L227 229L226 228z"/>
<path style="fill:#a16025; stroke:none;" d="M227.667 228.333L228.333 228.667L227.667 228.333M366 228L367 229L366 228z"/>
<path style="fill:#814719; stroke:none;" d="M223 229L224 230L223 229z"/>
<path style="fill:#a16025; stroke:none;" d="M224.667 229.333L225.333 229.667L224.667 229.333M367.333 230.667L367.667 231.333L367.333 230.667M9 231L10 232L9 231M368.333 233.667L368.667 234.333L368.333 233.667M8 234L9 235L8 234z"/>
<path style="fill:#814719; stroke:none;" d="M369 236L370 237L369 236z"/>
<path style="fill:#a16025; stroke:none;" d="M7 237L8 238L7 237M369 237L370 238L369 237z"/>
<path style="fill:#814719; stroke:none;" d="M370 239L371 240L370 239z"/>
<path style="fill:#a16025; stroke:none;" d="M6 240L7 241L6 240M370 240L371 241L370 240z"/>
<path style="fill:#814719; stroke:none;" d="M371 242L372 243L371 242z"/>
<path style="fill:#a16025; stroke:none;" d="M5 243L6 244L5 243M371 243L372 244L371 243z"/>
<path style="fill:#814719; stroke:none;" d="M372 245L373 246L372 245z"/>
<path style="fill:#a16025; stroke:none;" d="M4 246L5 247L4 246M372 246L373 247L372 246z"/>
<path style="fill:#814719; stroke:none;" d="M3 248L4 249L3 248M373 248L374 249L373 248z"/>
<path style="fill:#a16025; stroke:none;" d="M3 249L4 250L3 249M373 249L374 250L373 249z"/>
<path style="fill:#814719; stroke:none;" d="M2 251L3 252L2 251z"/>
<path style="fill:#a16025; stroke:none;" d="M2 252L3 253L2 252M374 252L375 253L374 252z"/>
<path style="fill:#814719; stroke:none;" d="M1 254L2 255L1 254z"/>
<path style="fill:#a16025; stroke:none;" d="M1 255L2 256L1 255M375 255L376 256L375 255z"/>
<path style="fill:#814719; stroke:none;" d="M0.333333 257.667L0.666667 258.333L0.333333 257.667z"/>
<path style="fill:#a16025; stroke:none;" d="M376 258L377 259L376 258M0.333333 259.667L0.666667 260.333L0.333333 259.667z"/>
<path style="fill:#2f4356; stroke:none;" d="M376 259L354 343C332.988 338.139 312.652 329.501 292 323.28C285.524 321.329 276.802 316.227 270 316.629C264.366 316.962 258.594 323.536 254 326.456C244.896 332.244 234.013 337.625 224 341.648C217.932 344.086 210.423 343 204 343C192.309 343 180.626 343.723 169 343.867C156.908 344.017 137.32 332.991 127 326.907C121.964 323.938 116.085 317.705 110 317.409C101.793 317.009 90.7509 322.75 83 325.333C63.6436 331.785 43.8747 339.402 24 344L24 345L377 345L377 286L376 259M0 261L0 345L23 345L7 285L0 261z"/>
<path style="fill:#a16025; stroke:none;" d="M375 261L376 262L375 261M1.33333 262.667L1.66667 263.333L1.33333 262.667z"/>
<path style="fill:#814719; stroke:none;" d="M375 262L376 263L375 262M1 264L2 265L1 264z"/>
<path style="fill:#a16025; stroke:none;" d="M374 265L375 266L374 265M2.33333 266.667L2.66667 267.333L2.33333 266.667z"/>
<path style="fill:#814719; stroke:none;" d="M374 266L375 267L374 266M2 268L3 269L2 268z"/>
<path style="fill:#a16025; stroke:none;" d="M373.333 268.667L373.667 269.333L373.333 268.667M3.33333 270.667L3.66667 271.333L3.33333 270.667M372.333 272.667L372.667 273.333L372.333 272.667M4 273L4 276L5 276L4 273M171 274L171 275L215 274C205.422 269.981 180.943 271.061 171 274z"/>
<path style="fill:#2f4356; stroke:none;" d="M162 311C174.012 304.392 193.514 308 207 308C213.253 308 219.146 307.52 225 310C224.66 302.072 225.081 284.721 220.258 278.329C217.539 274.727 213.194 274.062 209 274.004C198.961 273.864 174.84 269.69 167.589 277.765C161.927 284.069 163.049 302.701 162 311z"/>
<path style="fill:#814719; stroke:none;" d="M215 274L216 275L215 274z"/>
<path style="fill:#a16025; stroke:none;" d="M216 274L217 275L216 274M169 275L170 276L169 275z"/>
<path style="fill:#814719; stroke:none;" d="M170 275L171 276L170 275z"/>
<path style="fill:#a16025; stroke:none;" d="M217 275L218 276L217 275M168 276L169 277L168 276z"/>
<path style="fill:#814719; stroke:none;" d="M218 276L219 277L218 276z"/>
<path style="fill:#a16025; stroke:none;" d="M219 276L220 277L219 276M371 276L372 277L371 276M5.33333 277.667L5.66667 278.333L5.33333 277.667M166.667 277.333L167.333 277.667L166.667 277.333M220 277L221 278L220 277z"/>
<path style="fill:#814719; stroke:none;" d="M371 277L372 278L371 277z"/>
<path style="fill:#a16025; stroke:none;" d="M165 278L165 281L166 281L165 278M221 278L222 279L221 278z"/>
<path style="fill:#814719; stroke:none;" d="M5 279L6 280L5 279z"/>
<path style="fill:#d0bdaf; stroke:none;" d="M164 279C147.785 290.03 122.981 301.474 111 317C127.372 326.115 143.667 337.032 162 342.211C169.951 344.458 179.79 343 188 343C198.433 343 210.793 344.816 221 342.61C237.233 339.1 256.216 326.138 269 316L269 315C255.011 302.818 238.518 287.432 222 279L226 312C219.957 306.89 215.277 308.807 208 308.985C193.831 309.332 173.645 305.044 161 312C162.591 303.435 167.294 287.077 164 279z"/>
<path style="fill:#814719; stroke:none;" d="M221 279L222 280L221 279z"/>
<path style="fill:#a16025; stroke:none;" d="M370.333 279.667L370.667 280.333L370.333 279.667M6.33333 281.667L6.66667 282.333L6.33333 281.667z"/>
<path style="fill:#814719; stroke:none;" d="M165.333 281.667L165.667 282.333L165.333 281.667M370 281L371 282L370 281M6 283L7 284L6 283z"/>
<path style="fill:#a16025; stroke:none;" d="M369.333 283.667L369.667 284.333L369.333 283.667M222 284L222 288L223 288L222 284M7 285L8 286L7 285M164 285L164 289L165 289L164 285z"/>
<path style="fill:#814719; stroke:none;" d="M7 286L8 287L7 286z"/>
<path style="fill:#a16025; stroke:none;" d="M368.333 287.667L368.667 288.333L368.333 287.667M8 288L8 291L9 291L8 288z"/>
<path style="fill:#814719; stroke:none;" d="M164 289L164 292L165 292L164 289z"/>
<path style="fill:#a16025; stroke:none;" d="M367 291L368 292L367 291M9.33333 292.667L9.66667 293.333L9.33333 292.667M223 292L223 296L224 296L223 292z"/>
<path style="fill:#814719; stroke:none;" d="M367 292L368 293L367 292z"/>
<path style="fill:#a16025; stroke:none;" d="M163 293L163 297L164 297L163 293z"/>
<path style="fill:#814719; stroke:none;" d="M9 294L10 295L9 294z"/>
<path style="fill:#a16025; stroke:none;" d="M366.333 294.667L366.667 295.333L366.333 294.667M10.3333 296.667L10.6667 297.333L10.3333 296.667z"/>
<path style="fill:#814719; stroke:none;" d="M223 296L224 297L223 296M163 297L163 300L164 300L163 297M10 298L11 299L10 298z"/>
<path style="fill:#a16025; stroke:none;" d="M365.333 298.667L365.667 299.333L365.333 298.667M11.3333 300.667L11.6667 301.333L11.3333 300.667M162 301L162 305L163 305L162 301M224 301L224 305L225 305L224 301M364.333 302.667L364.667 303.333L364.333 302.667M12 303L12 306L13 306L12 303z"/>
<path style="fill:#814719; stroke:none;" d="M162 305L162 308L163 308L162 305z"/>
<path style="fill:#a16025; stroke:none;" d="M363 306L364 307L363 306M13.3333 307.667L13.6667 308.333L13.3333 307.667z"/>
<path style="fill:#814719; stroke:none;" d="M363 307L364 308L363 307z"/>
<path style="fill:#a16025; stroke:none;" d="M165 308L165 309L214 309C201.348 303.691 178.788 308 165 308z"/>
<path style="fill:#814719; stroke:none;" d="M222 308L223 309L222 308M13 309L14 310L13 309z"/>
<path style="fill:#a16025; stroke:none;" d="M161 309L163 312L161 309M164 309L165 310L164 309z"/>
<path style="fill:#814719; stroke:none;" d="M223 309L224 310L223 309z"/>
<path style="fill:#a16025; stroke:none;" d="M225 309L226 312L225 309M362.333 309.667L362.667 310.333L362.333 309.667M163 310L164 311L163 310M14.3333 311.667L14.6667 312.333L14.3333 311.667z"/>
<path style="fill:#814719; stroke:none;" d="M14 313L15 314L14 313z"/>
<path style="fill:#a16025; stroke:none;" d="M361.333 313.667L361.667 314.333L361.333 313.667M15.3333 315.667L15.6667 316.333L15.3333 315.667M270 315L271 316L270 315M108 316L108 317L111 317L108 316z"/>
<path style="fill:#814719; stroke:none;" d="M271 316L272 317L271 316z"/>
<path style="fill:#a16025; stroke:none;" d="M272.667 316.333L273.333 316.667L272.667 316.333M105 317L105 318L108 318L105 317M112 317L113 318L112 317z"/>
<path style="fill:#814719; stroke:none;" d="M274 317L275 318L274 317z"/>
<path style="fill:#a16025; stroke:none;" d="M275.667 317.333L276.333 317.667L275.667 317.333M360 317L361 318L360 317M16 318L16 321L17 321L16 318M102 318L102 319L105 319L102 318M265 318L266 319L265 318z"/>
<path style="fill:#814719; stroke:none;" d="M277 318L278 319L277 318z"/>
<path style="fill:#a16025; stroke:none;" d="M278.667 318.333L279.333 318.667L278.667 318.333z"/>
<path style="fill:#814719; stroke:none;" d="M360 318L361 319L360 318z"/>
<path style="fill:#a16025; stroke:none;" d="M99.6667 319.333L100.333 319.667L99.6667 319.333z"/>
<path style="fill:#814719; stroke:none;" d="M101 319L102 320L101 319z"/>
<path style="fill:#a16025; stroke:none;" d="M115 319L116 320L115 319z"/>
<path style="fill:#814719; stroke:none;" d="M280 319L281 320L280 319z"/>
<path style="fill:#a16025; stroke:none;" d="M281.667 319.333L282.333 319.667L281.667 319.333M95 320L95 321L98 321L95 320z"/>
<path style="fill:#814719; stroke:none;" d="M98 320L99 321L98 320M283 320L284 321L283 320z"/>
<path style="fill:#a16025; stroke:none;" d="M284.667 320.333L285.333 320.667L284.667 320.333M92 321L92 322L95 322L92 321M118 321L119 322L118 321M261 321L262 322L261 321z"/>
<path style="fill:#814719; stroke:none;" d="M286 321L287 322L286 321z"/>
<path style="fill:#a16025; stroke:none;" d="M287.667 321.333L288.333 321.667L287.667 321.333M359 321L360 322L359 321M17.3333 322.667L17.6667 323.333L17.3333 322.667M90.6667 322.333L91.3333 322.667L90.6667 322.333z"/>
<path style="fill:#814719; stroke:none;" d="M289 322L290 323L289 322z"/>
<path style="fill:#a16025; stroke:none;" d="M290.667 322.333L291.333 322.667L290.667 322.333z"/>
<path style="fill:#814719; stroke:none;" d="M359 322L360 323L359 322z"/>
<path style="fill:#a16025; stroke:none;" d="M87.6667 323.333L88.3333 323.667L87.6667 323.333M121 323L122 324L121 323M258 323L259 324L258 323z"/>
<path style="fill:#814719; stroke:none;" d="M292 323L293 324L292 323z"/>
<path style="fill:#a16025; stroke:none;" d="M293.667 323.333L294.333 323.667L293.667 323.333z"/>
<path style="fill:#814719; stroke:none;" d="M17 324L18 325L17 324z"/>
<path style="fill:#a16025; stroke:none;" d="M84.6667 324.333L85.3333 324.667L84.6667 324.333z"/>
<path style="fill:#814719; stroke:none;" d="M296 324L297 325L296 324z"/>
<path style="fill:#a16025; stroke:none;" d="M297 324L298 325L297 324M358.333 324.667L358.667 325.333L358.333 324.667M81.6667 325.333L82.3333 325.667L81.6667 325.333M124 325L125 326L124 325z"/>
<path style="fill:#814719; stroke:none;" d="M299 325L300 326L299 325z"/>
<path style="fill:#a16025; stroke:none;" d="M300 325L301 326L300 325M18.3333 326.667L18.6667 327.333L18.3333 326.667M78.6667 326.333L79.3333 326.667L78.6667 326.333M254 326L255 327L254 326z"/>
<path style="fill:#814719; stroke:none;" d="M302 326L303 327L302 326z"/>
<path style="fill:#a16025; stroke:none;" d="M303.667 326.333L304.333 326.667L303.667 326.333M74 327L74 328L77 328L74 327M127 327L128 328L127 327z"/>
<path style="fill:#814719; stroke:none;" d="M305 327L306 328L305 327z"/>
<path style="fill:#a16025; stroke:none;" d="M306 327L307 328L306 327z"/>
<path style="fill:#814719; stroke:none;" d="M18 328L19 329L18 328z"/>
<path style="fill:#a16025; stroke:none;" d="M72 328L73 329L72 328z"/>
<path style="fill:#814719; stroke:none;" d="M73 328L74 329L73 328z"/>
<path style="fill:#a16025; stroke:none;" d="M129 328L130 329L129 328M250 328L251 329L250 328z"/>
<path style="fill:#814719; stroke:none;" d="M308 328L309 329L308 328z"/>
<path style="fill:#a16025; stroke:none;" d="M309.667 328.333L310.333 328.667L309.667 328.333M357.333 328.667L357.667 329.333L357.333 328.667M68.6667 329.333L69.3333 329.667L68.6667 329.333z"/>
<path style="fill:#814719; stroke:none;" d="M70 329L71 330L70 329z"/>
<path style="fill:#a16025; stroke:none;" d="M132 329L133 330L132 329M248 329L249 330L248 329z"/>
<path style="fill:#814719; stroke:none;" d="M311 329L312 330L311 329z"/>
<path style="fill:#a16025; stroke:none;" d="M312.667 329.333L313.333 329.667L312.667 329.333M19.3333 330.667L19.6667 331.333L19.3333 330.667M65.6667 330.333L66.3333 330.667L65.6667 330.333M134 330L135 331L134 330M246 330L247 331L246 330z"/>
<path style="fill:#814719; stroke:none;" d="M314 330L315 331L314 330z"/>
<path style="fill:#a16025; stroke:none;" d="M315 330L316 331L315 330M62.6667 331.333L63.3333 331.667L62.6667 331.333M136 331L137 332L136 331M244 331L245 332L244 331z"/>
<path style="fill:#814719; stroke:none;" d="M317 331L318 332L317 331z"/>
<path style="fill:#a16025; stroke:none;" d="M318.667 331.333L319.333 331.667L318.667 331.333M59.6667 332.333L60.3333 332.667L59.6667 332.333M138.667 332.333L139.333 332.667L138.667 332.333M242 332L243 333L242 332z"/>
<path style="fill:#814719; stroke:none;" d="M320 332L321 333L320 332z"/>
<path style="fill:#a16025; stroke:none;" d="M321.667 332.333L322.333 332.667L321.667 332.333M356 332L357 333L356 332M20 333L20 336L21 336L20 333M56.6667 333.333L57.3333 333.667L56.6667 333.333M141 333L142 334L141 333M240 333L241 334L240 333z"/>
<path style="fill:#814719; stroke:none;" d="M323 333L324 334L323 333z"/>
<path style="fill:#a16025; stroke:none;" d="M324.667 333.333L325.333 333.667L324.667 333.333z"/>
<path style="fill:#814719; stroke:none;" d="M356 333L357 334L356 333z"/>
<path style="fill:#a16025; stroke:none;" d="M53.6667 334.333L54.3333 334.667L53.6667 334.333M143 334L144 335L143 334M238 334L239 335L238 334z"/>
<path style="fill:#814719; stroke:none;" d="M326 334L327 335L326 334z"/>
<path style="fill:#a16025; stroke:none;" d="M327.667 334.333L328.333 334.667L327.667 334.333M50.6667 335.333L51.3333 335.667L50.6667 335.333M145.667 335.333L146.333 335.667L145.667 335.333M236 335L237 336L236 335z"/>
<path style="fill:#814719; stroke:none;" d="M329 335L330 336L329 335z"/>
<path style="fill:#a16025; stroke:none;" d="M330.667 335.333L331.333 335.667L330.667 335.333M47 336L48 337L47 336z"/>
<path style="fill:#814719; stroke:none;" d="M48 336L49 337L48 336z"/>
<path style="fill:#a16025; stroke:none;" d="M148 336L149 337L148 336M234 336L235 337L234 336z"/>
<path style="fill:#814719; stroke:none;" d="M333 336L334 337L333 336z"/>
<path style="fill:#a16025; stroke:none;" d="M334 336L335 337L334 336M355 336L356 337L355 336M21.3333 337.667L21.6667 338.333L21.3333 337.667M44 337L45 338L44 337z"/>
<path style="fill:#814719; stroke:none;" d="M45 337L46 338L45 337z"/>
<path style="fill:#a16025; stroke:none;" d="M150 337L151 338L150 337M232 337L233 338L232 337z"/>
<path style="fill:#814719; stroke:none;" d="M336 337L337 338L336 337z"/>
<path style="fill:#a16025; stroke:none;" d="M337 337L338 338L337 337z"/>
<path style="fill:#814719; stroke:none;" d="M355 337L356 338L355 337z"/>
<path style="fill:#a16025; stroke:none;" d="M40.6667 338.333L41.3333 338.667L40.6667 338.333z"/>
<path style="fill:#814719; stroke:none;" d="M42 338L43 339L42 338z"/>
<path style="fill:#a16025; stroke:none;" d="M152 338L153 339L152 338M230 338L231 339L230 338z"/>
<path style="fill:#814719; stroke:none;" d="M338.667 338.333L339.333 338.667L338.667 338.333z"/>
<path style="fill:#a16025; stroke:none;" d="M340 338L341 339L340 338z"/>
<path style="fill:#814719; stroke:none;" d="M21 339L22 340L21 339z"/>
<path style="fill:#a16025; stroke:none;" d="M37.6667 339.333L38.3333 339.667L37.6667 339.333M155 339L156 340L155 339M228 339L229 340L228 339z"/>
<path style="fill:#814719; stroke:none;" d="M342 339L343 340L342 339z"/>
<path style="fill:#a16025; stroke:none;" d="M343 339L344 340L343 339M354.333 339.667L354.667 340.333L354.333 339.667M34.6667 340.333L35.3333 340.667L34.6667 340.333M157 340L158 341L157 340M226 340L227 341L226 340z"/>
<path style="fill:#814719; stroke:none;" d="M345 340L346 341L345 340z"/>
<path style="fill:#a16025; stroke:none;" d="M346 340L347 341L346 340M22.3333 341.667L22.6667 342.333L22.3333 341.667M31.6667 341.333L32.3333 341.667L31.6667 341.333M159 341L160 342L159 341M224 341L225 342L224 341z"/>
<path style="fill:#814719; stroke:none;" d="M348 341L349 342L348 341z"/>
<path style="fill:#a16025; stroke:none;" d="M349 341L350 342L349 341M28.6667 342.333L29.3333 342.667L28.6667 342.333M162 342L163 343L162 342M222 342L223 343L222 342z"/>
<path style="fill:#814719; stroke:none;" d="M351 342L352 343L351 342z"/>
<path style="fill:#a16025; stroke:none;" d="M352.667 342.333L353.333 342.667L352.667 342.333z"/>
<path style="fill:#814719; stroke:none;" d="M22 343L23 344L22 343z"/>
<path style="fill:#a16025; stroke:none;" d="M25.6667 343.333L26.3333 343.667L25.6667 343.333M164 343L164 344L173 344L164 343z"/>
<path style="fill:#814719; stroke:none;" d="M23 344L24 345L23 344z"/>
</svg>
